{"title":"300 Rise Of An Empire 2014 720p CAM V2 x264 Pimp4003","uid":9760822,"size":1630347458,"categoryP":"video","categoryS":"movies","magnet":"?xt=urn:btih:41fa036600191f4689b81b93e7b117223048ff93&amp;dn=300+Rise+Of+An+Empire+2014+720p+CAM+V2+x264+Pimp4003&amp;tr=udp%3A%2F%2Ftracker.openbittorrent.com%3A80&amp;tr=udp%3A%2F%2Fopen.demonii.com%3A1337&amp;tr=udp%3A%2F%2Ftracker.coppersurfer.tk%3A6969&amp;tr=udp%3A%2F%2Fexodus.desync.com%3A6969","seeders":11,"leechers":0,"uploader":"shawnmurthy","files":-1,"time":1394808009,"description":"Get all Pimp4003 newest releases first at \n &lt;a href=&quot;\nhttp://WWW.PIMP4003.NET&quot; rel=&quot;nofollow&quot; target=&quot;_NEW&quot;&gt;\nhttp://WWW.PIMP4003.NET&lt;/a&gt; with VIP downloads speed\n\nRegister here and you can chat, request movies, view upcoming uploads and much more\n\nUPLOAD UNLIMITED IMAGES AND UP TO 10MB IN FILE SIZES FOR FREE....\n &lt;a href=&quot;\nhttp://www.piczhub.com&quot; rel=&quot;nofollow&quot; target=&quot;_NEW&quot;&gt;\nhttp://www.piczhub.com&lt;/a&gt;\n\nPIMP4003 AND PIMPRG PRESENTS\n\n300 Rise Of An Empire 2014 720p CAM V2 x264 Pimp4003\n &lt;a href=&quot;\nhttp://www.imdb.com/title/tt1253863/&quot; rel=&quot;nofollow&quot; target=&quot;_NEW&quot;&gt;\nhttp://www.imdb.com/title/tt1253863/&lt;/a&gt;\n\nGreek general Themistokles leads the charge against invading Persian forces led by mortal-turned-god Xerxes and Artemisia, vengeful commander of the Persian navy.\n\nDirector: Noam Murro\nWriters: Zack Snyder (screenplay), Kurt Johnstad (screenplay), 1 more credit Â»\nStars: Sullivan Stapleton, Eva Green, Lena Headey | See full cast and crew Â»\n\nVideo\nID                                       : 1\nFormat                                   : AVC\nFormat/Info                              : Advanced Video Codec\nFormat profile                           : &lt;a class=&quot;__cf_email__&quot; href=&quot;/cdn-cgi/l/email-protection&quot; data-cfemail=&quot;cf87a6a8a78f83fce1fe&quot;&gt;[email&amp;#160;protected]&lt;/a&gt;&lt;script cf-hash='f9e31' type=&quot;text/javascript&quot;&gt;\n/* &lt;![CDATA[ */!function(){try{var t=&quot;currentScript&quot;in document?document.currentScript:function(){for(var t=document.getElementsByTagName(&quot;script&quot;),e=t.length;e--;)if(t[e].getAttribute(&quot;cf-hash&quot;))return t[e]}();if(t&amp;&amp;t.previousSibling){var e,r,n,i,c=t.previousSibling,a=c.getAttribute(&quot;data-cfemail&quot;);if(a){for(e=&quot;&quot;,r=parseInt(a.substr(0,2),16),n=2;a.length-n;n+=2)i=parseInt(a.substr(n,2),16)^r,e+=String.fromCharCode(i);e=document.createTextNode(e),c.parentNode.replaceChild(e,c)}}}catch(u){}}();/* ]]&gt; */&lt;/script&gt;\nFormat settings, CABAC                   : Yes\nFormat settings, ReFrames                : 5 frames\nFormat settings, GOP                     : M=4, N=13\nCodec ID                                 : avc1\nCodec ID/Info                            : Advanced Video Coding\nDuration                                 : 1h 33mn\nBit rate                                 : 2 144 Kbps\nWidth                                    : 1 280 pixels\nHeight                                   : 552 pixels\nDisplay aspect ratio                     : 2.35:1\nFrame rate mode                          : Constant\nFrame rate                               : 29.970 fps\nColor space                              : YUV\nChroma subsampling                       : 4:2:0\nBit depth                                : 8 bits\nScan type                                : Progressive\nBits/(Pixel*Frame)                       : 0.101\nStream size                              : 1.41 GiB (93%)\nWriting library                          : x264 core 110\nEncoding settings                        : cabac=1 / ref=5 / deblock=1:0:0 / analyse=0x3:0x133 / me=hex / subme=8 / psy=1 / psy_rd=1.00:0.00 / mixed_ref=1 / me_range=16 / chroma_me=0 / trellis=1 / 8x8dct=1 / cqm=0 / deadzone=21,11 / fast_pskip=1 / chroma_qp_offset=-2 / threads=8 / sliced_threads=0 / nr=0 / decimate=1 / interlaced=0 / constrained_intra=0 / bframes=3 / b_pyramid=0 / b_adapt=0 / b_bias=0 / direct=3 / weightb=1 / open_gop=0 / weightp=0 / keyint=13 / keyint_min=7 / scenecut=0 / intra_refresh=0 / rc_lookahead=13 / rc=abr / mbtree=1 / bitrate=2144 / ratetol=1.0 / qcomp=0.00 / qpmin=10 / qpmax=51 / qpstep=4 / ip_ratio=1.41 / aq=1:1.00\n\nAudio\nID                                       : 2\nFormat                                   : AAC\nFormat/Info                              : Advanced Audio Codec\nFormat profile                           : LC\nCodec ID                                 : 40\nDuration                                 : 1h 33mn\nBit rate mode                            : Variable\nBit rate                                 : 165 Kbps\nChannel(s)                               : 2 channels\nChannel positions                        : Front: L R\nSampling rate                            : 48.0 KHz\nCompression mode                         : Lossy\nStream size                              : 111 MiB (7%)\n &lt;a href=&quot;\nhttp://someimage.com/ETE3JII&quot; rel=&quot;nofollow&quot; target=&quot;_NEW&quot;&gt;\nhttp://someimage.com/ETE3JII&lt;/a&gt; &lt;a href=&quot;\nhttp://someimage.com/kGSZwfq&quot; rel=&quot;nofollow&quot; target=&quot;_NEW&quot;&gt;\nhttp://someimage.com/kGSZwfq&lt;/a&gt; &lt;a href=&quot;\nhttp://someimage.com/9FspSuk&quot; rel=&quot;nofollow&quot; target=&quot;_NEW&quot;&gt;\nhttp://someimage.com/9FspSuk&lt;/a&gt; &lt;a href=&quot;\nhttp://someimage.com/mzePSOZ&quot; rel=&quot;nofollow&quot; target=&quot;_NEW&quot;&gt;\nhttp://someimage.com/mzePSOZ&lt;/a&gt; &lt;a href=&quot;\nhttp://someimage.com/5riCz0H&quot; rel=&quot;nofollow&quot; target=&quot;_NEW&quot;&gt;\nhttp://someimage.com/5riCz0H&lt;/a&gt; &lt;a href=&quot;\nhttp://someimage.com/pVSl0HZ&quot; rel=&quot;nofollow&quot; target=&quot;_NEW&quot;&gt;\nhttp://someimage.com/pVSl0HZ&lt;/a&gt; &lt;a href=&quot;\nhttp://someimage.com/YHLArxU&quot; rel=&quot;nofollow&quot; target=&quot;_NEW&quot;&gt;\nhttp://someimage.com/YHLArxU&lt;/a&gt;\n\nSOURCE IS TITAN....BRIGHTENED THE VIDEO OUT AND MADE IT GOOD SINCE ENTIRE VIDEO IS PRETTY DARK AND ALSO THIS SOURCE IS 3D WHICH IS BLURRY TRIED TO MAKE IT BETTER HAS MUCH AS I COULD....AUDIO WAS A LITTLE HOLLOW AND MADE IT BETTER....ENJOY PIMP4003","torrent":{"xt":"urn:btih:41fa036600191f4689b81b93e7b117223048ff93","amp;dn":"300+Rise+Of+An+Empire+2014+720p+CAM+V2+x264+Pimp4003","amp;tr":["udp%3A%2F%2Ftracker.openbittorrent.com%3A80","udp%3A%2F%2Fopen.demonii.com%3A1337","udp%3A%2F%2Ftracker.coppersurfer.tk%3A6969","udp%3A%2F%2Fexodus.desync.com%3A6969"],"infoHash":"41fa036600191f4689b81b93e7b117223048ff93","infoHashBuffer":{"type":"Buffer","data":[65,250,3,102,0,25,31,70,137,184,27,147,231,177,23,34,48,72,255,147]},"announce":[],"urlList":[]}}